<svg width="102" height="17" viewBox="0 0 102 17" fill="none" xmlns="http://www.w3.org/2000/svg">
<path d="M80.8 14L83.8 16.8L91.8 8.4L84 0L81 2.8C83 4.8 85.2 7.2 86.2 8.2C85.2 9.4 82.8 11.8 80.8 14Z" fill="black"/>
<path d="M23.2 4.00005H24.6C26.4 4.00005 26.8 5.40005 26.8 6.20005C26.8 8.60005 24.2 8.60004 23.8 8.60004L27.2 15.8H32L28.8 9.80005C29.6 9.40005 31.2 8.40004 31.2 5.60004C31.2 4.20004 30.6 2.80005 29.4 2.00005C28.2 1.20005 27 0.800049 24.2 0.800049H18.6V15.8H23V4.00005H23.2Z" fill="black"/>
<path d="M42.4 15.8H38V4.20005H33.8V0.800049H46.6V4.20005H42.4V15.8Z" fill="black"/>
<path d="M70.2 4.80003C70.6 4.20003 71.2 3.80003 72.2 3.80003C73.2 3.80003 73.8 4.20003 74.2 4.80003C74.6 5.40003 74.8 6.60003 74.8 8.20003C74.8 9.80003 74.6 11 74.2 11.6C73.8 12.2 73.2 12.6 72.2 12.6C71.2 12.6 70.6 12.2 70.2 11.6C69.8 11 69.4 9.80003 69.4 8.20003C69.4 6.60003 69.8 5.40003 70.2 4.80003ZM66.8 14C68 15.4 70 16 72.2 16C74.4 16 76.4 15.4 77.6 14C78.8 12.6 79.4 10.8 79.4 8.20003C79.4 5.80003 78.8 3.80002 77.6 2.40002C76.4 1.00002 74.4 0.400024 72.2 0.400024C70 0.400024 68 1.00002 66.8 2.40002C65.6 3.80002 65 5.60003 65 8.20003C64.8 10.8 65.6 12.8 66.8 14Z" fill="black"/>
<path d="M59.8 7.80005C61.6 7.20005 62 5.80004 62 4.60004C62 3.20004 61.2 2.20004 60 1.60004C59 1.00004 57.8 0.800049 55.8 0.800049H49.6V15.8H56.4C60 15.8 62.4 14.6 62.4 11.4C62.2 8.20005 59.8 7.80005 59.8 7.80005ZM53.8 3.80005H55.4C56.8 3.80005 57.4 4.40005 57.4 5.20005C57.4 6.00005 56.8 6.60004 55.6 6.60004H53.8V3.80005ZM55.8 12.6H53.8V9.40005H55.6C57 9.40005 57.6 10.2 57.6 11C57.6 11.8 57 12.6 55.8 12.6Z" fill="black"/>
<path d="M11.2 0.800049H4.4L0 15.8H4.8L5.8 12.2001H9.8L10.8 15.8H15.6L11.2 0.800049ZM6.4 9.20005L7.8 3.80005L9.2 9.20005H6.4Z" fill="black"/>
<path d="M102 6.4H93.6L97.2 2.8L94.2 0L86.2 8.2L94.4 17L97.4 14.2L93.6 10.2H102V6.4Z" fill="#E83535"/>
</svg>
