<svg width="76" height="76" viewBox="0 0 76 76" fill="none" xmlns="http://www.w3.org/2000/svg">
<path d="M55 1H21C9.9543 1 1 9.95431 1 21V55C1 66.0457 9.95431 75 21 75H55C66.0457 75 75 66.0457 75 55V21C75 9.9543 66.0457 1 55 1Z" fill="#F71334" stroke="#F71334" stroke-width="0.043855"/>
<path d="M53.9062 40.5901L55.5646 42.1395L59.8141 37.4912L55.6682 32.8428L54.1135 34.3923C55.15 35.5285 56.2901 36.8714 56.8083 37.3879C56.1864 38.0076 54.9427 39.4538 53.9062 40.5901Z" fill="black"/>
<path d="M23.3304 35.012H24.0559C25.0924 35.012 25.196 35.8384 25.196 36.2516C25.196 37.5945 23.745 37.5945 23.5377 37.5945L25.4033 41.623H27.8908L26.2325 38.3175C26.6471 38.1109 27.4762 37.4912 27.4762 36.045C27.4762 35.2186 27.1653 34.5989 26.5434 34.0824C25.9215 33.5659 25.196 33.4626 23.8486 33.4626H20.9465V41.7263H23.2267V35.012H23.3304Z" fill="black"/>
<path d="M33.4877 41.6231H31.1038V35.2187H28.8236V33.3593H35.6643V35.2187H33.384V41.6231H33.4877Z" fill="black"/>
<path d="M48.2056 35.5285C48.4129 35.2186 48.7238 35.0121 49.2421 35.0121C49.7603 35.0121 50.0712 35.2186 50.2785 35.5285C50.4858 35.8384 50.6931 36.4582 50.6931 37.4912C50.6931 38.4208 50.4858 39.0406 50.2785 39.3505C50.0712 39.6604 49.7603 39.867 49.2421 39.867C48.7238 39.867 48.4129 39.6604 48.2056 39.3505C47.9983 39.0406 47.791 38.4208 47.791 37.4912C47.791 36.5615 47.9983 35.8384 48.2056 35.5285ZM46.3399 40.6934C46.9618 41.4164 47.9983 41.8296 49.2421 41.8296C50.4858 41.8296 51.4186 41.4164 52.1442 40.6934C52.766 39.9703 53.077 38.9373 53.077 37.4912C53.077 36.1483 52.766 35.1154 52.0405 34.289C51.4186 33.5659 50.3822 33.1527 49.1384 33.1527C47.8946 33.1527 46.9618 33.5659 46.2363 34.289C45.6144 35.0121 45.1998 36.045 45.1998 37.4912C45.4071 38.834 45.7181 39.9703 46.3399 40.6934Z" fill="black"/>
<path d="M42.7123 37.2846C43.6452 36.9747 43.8524 36.1483 43.8524 35.5285C43.8524 34.8054 43.4379 34.1857 42.816 33.8758C42.2977 33.5659 41.6759 33.4626 40.5358 33.4626H37.2191V41.7263H40.8467C42.7123 41.7263 44.0597 41.0032 44.0597 39.3505C43.9561 37.4912 42.7123 37.2846 42.7123 37.2846ZM39.4993 35.012H40.3285C41.054 35.012 41.3649 35.4252 41.3649 35.8384C41.3649 36.2516 41.054 36.6648 40.4321 36.6648H39.4993V35.012ZM40.5358 39.867H39.4993V38.1109H40.4321C41.1576 38.1109 41.4686 38.5241 41.4686 39.0406C41.5722 39.4538 41.2613 39.867 40.5358 39.867Z" fill="black"/>
<path d="M16.9043 33.3593H13.3803L11.1 41.6231H13.6912L14.2094 39.5571H16.2824L16.8006 41.6231H19.3918L16.9043 33.3593ZM14.4167 37.9044L15.1423 34.9088L15.8678 37.9044H14.4167Z" fill="black"/>
<path d="M65.1 36.3549H60.6432L62.5089 34.3923L60.9542 32.8428L56.7047 37.4912L61.0578 42.2428L62.6125 40.6934L60.6432 38.5241H65.1V36.3549Z" fill="white" stroke="black" stroke-width="0.054445" stroke-miterlimit="10"/>
</svg>
