<svg width="160" height="60" viewBox="0 0 160 60" fill="none" xmlns="http://www.w3.org/2000/svg">
<path d="M25.2679 29.6078C25.4601 30.7843 25.5562 31.9607 25.5562 33.1372C25.5562 35.7843 24.8836 37.745 23.5386 38.9215C22.1935 40.098 20.0798 40.6862 17.0054 40.6862H9.89581V35.7843H14.8917C16.8133 35.7843 18.0622 35.4901 18.8308 34.8039C19.5995 34.1176 19.9838 33.0392 19.9838 31.4705C19.9838 31.0784 19.9838 30.6862 19.8877 30.196C19.7916 29.7058 19.7916 29.3137 19.6955 29.0196L17.1015 11.0784C16.525 6.96073 14.6996 4.90191 11.6252 4.90191C9.03112 4.90191 7.30175 5.49014 6.43707 6.76465C5.76454 7.74505 5.38024 9.31367 5.38024 11.5686V59.9999H0V11.5686C0 7.54897 0.864679 4.70583 2.59404 2.94112C4.32341 1.17642 7.30176 0.294067 11.433 0.294067C15.0839 0.294067 17.6779 0.98034 19.3112 2.35289C20.8484 3.72544 21.9053 6.17642 22.3857 9.70583L25.2679 29.6078Z" fill="#F71334"/>
<path d="M56.9731 30.098C56.9731 34.2156 56.0124 37.0587 54.1869 38.7254C52.3615 40.3921 49.0949 41.2744 44.4833 41.2744C39.8717 41.2744 36.6051 40.3921 34.7796 38.7254C32.8581 37.0587 31.9934 34.1176 31.9934 30.098V11.2744C31.9934 7.15678 32.9542 4.31365 34.7796 2.64699C36.7011 0.98032 39.9677 0.0979614 44.4833 0.0979614C48.9989 0.0979614 52.2654 0.98032 54.1869 2.64699C56.1085 4.31365 57.0692 7.25482 57.0692 11.2744V30.098H56.9731ZM51.4968 29.8038V11.3725C51.4968 9.01953 50.9204 7.35286 49.7675 6.27443C48.6145 5.196 46.7891 4.60777 44.1951 4.60777C41.601 4.60777 39.7756 5.29404 38.6227 6.56855C37.6619 7.64699 37.1815 9.31365 37.1815 11.3725V29.8038C37.1815 32.3529 37.6619 34.0195 38.7187 34.9999C39.7756 35.8823 41.601 36.3725 44.2911 36.3725C46.8852 36.3725 48.7106 35.8823 49.7675 34.9019C51.0164 34.0195 51.4968 32.2548 51.4968 29.8038Z" fill="#F71334"/>
<path d="M89.9276 30.098C89.9276 34.2156 88.9668 37.0587 87.1414 38.7254C85.3159 40.3921 82.0494 41.2744 77.4377 41.2744C72.8261 41.2744 69.5595 40.3921 67.7341 38.7254C65.8126 37.0587 64.9479 34.1176 64.9479 30.098V11.2744C64.9479 7.15678 65.9086 4.31365 67.7341 2.64699C69.6556 0.98032 72.9222 0.0979614 77.4377 0.0979614C82.0494 0.0979614 85.2199 0.98032 87.1414 2.64699C89.0629 4.31365 90.0236 7.25482 90.0236 11.2744V30.098H89.9276ZM84.5473 29.8038V11.3725C84.5473 9.01953 83.9709 7.35286 82.818 6.27443C81.6651 5.196 79.8396 4.60777 77.2456 4.60777C74.6515 4.60777 72.8261 5.29404 71.6732 6.56855C70.7124 7.64699 70.232 9.31365 70.232 11.3725V29.8038C70.232 32.3529 70.7124 34.0195 71.7692 34.9999C72.8261 35.8823 74.6515 36.3725 77.3416 36.3725C79.9357 36.3725 81.7611 35.8823 82.818 34.9019C83.9709 34.0195 84.5473 32.2548 84.5473 29.8038Z" fill="#F71334"/>
<path d="M141.904 40.6863H136.524V11.1765C136.524 9.01961 135.947 7.35294 134.698 6.37255C133.545 5.39216 131.72 4.90196 129.318 4.90196C126.82 4.90196 125.091 5.39216 124.034 6.27451C122.977 7.2549 122.497 8.82353 122.497 11.1765V40.6863H117.309V11.2745C117.309 9.21569 116.732 7.64706 115.675 6.47059C114.618 5.39216 112.889 4.80392 110.487 4.80392C108.566 4.80392 106.932 5.19608 105.779 5.98039C104.05 7.05882 103.281 8.82353 103.281 11.1765V40.5882H97.9012V10.3922C97.9012 6.96078 98.7659 4.41177 100.687 2.7451C102.705 0.882356 105.876 0 110.295 0C112.505 0 114.522 0.392155 116.156 1.07843C117.789 1.7647 119.134 2.84314 119.999 4.01961C120.959 2.7451 122.208 1.7647 123.746 1.07843C125.283 0.392155 127.3 0 129.606 0C134.506 0 137.869 0.980391 139.79 3.03921C141.231 4.60784 142 7.05882 142 10.3922V40.6863H141.904Z" fill="#F71334"/>
<path d="M150 5C150 7.8 152.3 10 155 10C157.8 10 160 7.7 160 5C160 2.2 157.7 0 155 0C152.2 0 150 2.2 150 5ZM150.9 5C150.9 2.8 152.7 1 154.9 1C157.1 1 158.9 2.8 158.9 5C158.9 7.2 157.1 9 154.9 9C152.8 9 150.9 7.2 150.9 5Z" fill="#F71334"/>
<path d="M156 3.90001C156 4.30001 155.7 4.60001 155.2 4.60001H154.2V3.20001H155.2C155.7 3.20001 156 3.50001 156 3.90001ZM157.3 7.80001L156.1 5.40001C156.6 5.20001 157.1 4.70001 157.1 3.90001C157.1 3.00001 156.4 2.20001 155.3 2.20001H153.1V7.70001H154.2V5.50002H155L156.1 7.70001H157.3V7.80001Z" fill="#F71334"/>
</svg>
